<svg xmlns="http://www.w3.org/2000/svg" viewBox="0 0 200 200">
    <!-- Rainbow stripes background -->
    <rect width="200" height="28.57" fill="#e91e63" y="0"/>
    <rect width="200" height="28.57" fill="#ff5722" y="28.57"/>
    <rect width="200" height="28.57" fill="#ff9800" y="57.14"/>
    <rect width="200" height="28.57" fill="#ffeb3b" y="85.71"/>
    <rect width="200" height="28.57" fill="#8bc34a" y="114.28"/>
    <rect width="200" height="28.57" fill="#2196f3" y="142.85"/>
    <rect width="200" height="28.57" fill="#9c27b0" y="171.42"/>
    
    <!-- Border -->
    <rect width="200" height="200" fill="none" stroke="#6b4c9a" stroke-width="8"/>
    
    <!-- Angry eyebrows -->
    <rect x="50" y="65" width="35" height="8" fill="#000" transform="rotate(-20 67.5 69)"/>
    <rect x="115" y="65" width="35" height="8" fill="#000" transform="rotate(20 132.5 69)"/>
    
    <!-- Angry eyes -->
    <rect x="60" y="85" width="20" height="20" fill="#000"/>
    <rect x="62" y="87" width="8" height="8" fill="#ef4444"/>
    
    <rect x="120" y="85" width="20" height="20" fill="#000"/>
    <rect x="122" y="87" width="8" height="8" fill="#ef4444"/>
    
    <!-- Frown -->
    <rect x="70" y="145" width="60" height="10" fill="#000"/>
    <rect x="65" y="135" width="10" height="10" fill="#000"/>
    <rect x="125" y="135" width="10" height="10" fill="#000"/>
</svg>
